<?xml version="1.0"?>
<svg version="1.1" xmlns="http://www.w3.org/2000/svg" width="400" height="200"><path fill="#ffffff" d="M16.19140625,95.234375q0-0.91796875,0.048828125-1.81640625t0.166015625-1.77734375q0.078125-0.44921875,0.693359375-0.64453125t1.025390625-0.1953125l0.46875,0.0390625q0.56640625,0.078125,1.142578125-0.078125t1.142578125-0.15625q1.328125,0,2.96875,0.29296875t3.076171875,0.99609375t2.412109375,1.845703125t0.9765625,2.822265625t-1.015625,3.134765625t-2.55859375,2.55859375t-3.3203125,1.728515625t-3.26171875,0.625q0.15625,3.76953125,0.439453125,7.48046875t0.966796875,7.421875l0.0390625,0.25390625q0,0.2734375-0.244140625,0.44921875t-0.576171875,0.283203125t-0.673828125,0.146484375t-0.556640625,0.0390625q-0.48828125,0-1.181640625-0.185546875t-0.849609375-0.732421875q-0.44921875-1.71875-0.703125-3.779296875t-0.37109375-4.306640625t-0.166015625-4.521484375t-0.048828125-4.443359375l0-4.39453125q0-0.72265625-0.01953125-1.50390625t-0.01953125-1.58203125z M19.8828125,92.0703125q0,2.67578125,0.05859375,5.341796875t0.13671875,5.341796875q1.15234375-0.234375,2.353515625-0.830078125t2.16796875-1.416015625t1.5625-1.865234375t0.595703125-2.197265625q0-1.03515625-0.517578125-1.85546875t-1.337890625-1.40625q-0.80078125-0.56640625-1.81640625-0.87890625q-0.8984375-0.2734375-1.7578125-0.2734375l-0.21484375,0z M34.3099609375,113.515625q0-1.3671875,0.302734375-3.22265625t1.025390625-3.515625t1.904296875-2.822265625t2.978515625-1.162109375q1.6796875,0,2.51953125,0.966796875t0.83984375,2.607421875q0,1.07421875-0.400390625,2.353515625t-1.142578125,2.421875t-1.7578125,1.904296875t-2.265625,0.76171875l-0.5078125-0.0390625q0,0.52734375,0.15625,1.416015625t0.458984375,1.767578125t0.78125,1.54296875t1.162109375,0.6640625q0.99609375,0,1.9140625-0.80078125t1.73828125-1.77734375t1.5234375-1.77734375t1.2890625-0.80078125q0.3125,0,0.64453125,0.09765625t0.37109375,0.546875q0,0.2734375-0.146484375,0.44921875t-0.263671875,0.390625q-0.60546875,1.03515625-1.318359375,1.97265625t-1.611328125,1.69921875t-1.962890625,1.201171875t-2.353515625,0.439453125q-1.6796875,0-2.79296875-0.595703125t-1.796875-1.6015625t-0.986328125-2.32421875t-0.302734375-2.763671875z M37.8060546875,112.03125l0.546875,0.48828125q0.390625,0.3515625,0.78125,0.15625t0.703125-0.712890625t0.576171875-1.279296875t0.46875-1.5625t0.302734375-1.5625t0.09765625-1.26953125l0-0.6640625t-0.05859375-0.703125t-0.205078125-0.556640625t-0.458984375-0.283203125q-0.09765625-0.01953125-0.17578125-0.01953125q-0.6640625,0-1.1328125,0.83984375q-0.5078125,0.9375-0.8203125,2.275390625t-0.44921875,2.744140625t-0.17578125,2.109375z M50.631640625,107.24609375q0-0.80078125,0.283203125-1.34765625t1.201171875-0.546875q0.3515625,0,0.87890625,0.107421875t0.60546875,0.537109375q0.1953125,1.15234375,0.21484375,2.5t0.13671875,2.5390625q0.44921875-0.87890625,1.15234375-1.89453125t1.6015625-1.875t1.953125-1.42578125t2.1484375-0.56640625q0.078125,0,0.29296875,0.05859375t0.400390625,0.166015625t0.224609375,0.244140625t-0.21484375,0.25390625q-0.078125,0.234375-0.33203125,0.283203125t-0.44921875,0.048828125q-0.1171875,0-0.37109375-0.09765625q-1.4453125,0.76171875-2.4609375,2.0703125t-1.66015625,2.900390625t-0.9375,3.359375t-0.29296875,3.447265625q0,0.83984375-0.380859375,1.015625t-1.220703125,0.17578125q-0.44921875,0-0.947265625-0.09765625t-0.693359375-0.625q-0.3515625-1.11328125-0.576171875-2.55859375t-0.341796875-2.978515625t-0.166015625-3.017578125t-0.048828125-2.67578125z M64.5119140625,107.67578125q0-0.80078125,0.46875-1.376953125t1.142578125-0.9375t1.474609375-0.537109375t1.484375-0.17578125q0.52734375,0,1.40625,0.15625t1.71875,0.46875t1.455078125,0.8203125t0.615234375,1.19140625q0,0.3125-0.234375,0.556640625t-0.48828125,0.244140625q-0.52734375,0-0.95703125-0.341796875t-0.888671875-0.72265625t-1.005859375-0.72265625t-1.23046875-0.341796875t-1.240234375,0.439453125t-0.556640625,1.162109375q0,1.19140625,0.83984375,2.333984375t1.845703125,2.40234375t1.845703125,2.646484375t0.83984375,3.06640625q0,0.72265625-0.302734375,1.220703125t-0.80078125,0.810546875t-1.123046875,0.478515625t-1.2109375,0.166015625q-0.64453125,0-1.50390625-0.302734375t-1.62109375-0.80078125t-1.279296875-1.162109375t-0.517578125-1.38671875q0-0.3515625,0.498046875-0.44921875t0.732421875-0.09765625q0.1171875,0,0.361328125,0.078125t0.478515625,0.17578125t0.419921875,0.21484375t0.146484375,0.25390625q0.1953125,0.234375,0.595703125,0.693359375t0.80078125,0.7421875t0.703125,0.205078125t0.302734375-0.87890625q0-1.5234375-0.8203125-2.802734375t-1.787109375-2.5t-1.787109375-2.421875t-0.8203125-2.568359375z M78.275,112.24609375q0-1.796875,0.419921875-3.525390625t0.712890625-3.447265625q0.078125-0.44921875,0.615234375-0.556640625t0.908203125-0.107421875q0.64453125,0,1.03515625,0.1953125q0.15625,0.078125,0.29296875,0.17578125t0.13671875,0.25390625q0,1.6796875-0.400390625,3.28125t-0.400390625,3.3984375q0,0.60546875,0.087890625,1.142578125t0.166015625,1.064453125l0.1171875,0.56640625q0,0.15625,0.01953125,0.2734375t0.05859375,0.2734375q0,0.3515625-0.498046875,0.478515625t-0.869140625,0.126953125q-0.56640625,0-1.044921875-0.224609375t-0.751953125-0.771484375l-0.2734375-0.56640625q-0.234375-0.44921875-0.234375-1.005859375t-0.09765625-1.025390625z M79.525,100.48828125l0-0.37109375q0-0.91796875,0.458984375-1.640625t1.376953125-0.72265625q0.1171875,0,0.224609375,0.01953125t0.224609375,0.01953125q0.234375,0.0390625,0.615234375,0.185546875t0.380859375,0.458984375l0,0.0390625q-0.078125,0.15625-0.09765625,0.322265625t-0.09765625,0.283203125l0.0390625-0.0390625q-0.234375,0.60546875-0.380859375,0.9765625t-0.322265625,0.595703125t-0.439453125,0.322265625t-0.751953125,0.09765625q-0.078125,0-0.2734375-0.01953125t-0.419921875-0.078125t-0.380859375-0.15625t-0.15625-0.29296875z M86.8037109375,112.71484375q0-1.328125,0.361328125-2.55859375t1.083984375-2.197265625t1.806640625-1.54296875t2.509765625-0.576171875q0.87890625,0,1.943359375,0.263671875t2.001953125,0.78125t1.5625,1.318359375t0.625,1.8359375q0,0.48828125-0.166015625,0.7421875t-0.673828125,0.25390625l-0.21484375-0.0390625q0.56640625,1.5234375,0.9765625,3.125t0.80078125,3.203125q0.15625,0.3125,0.234375,0.556640625t0.078125,0.478515625q0,0.3125-0.17578125,0.517578125t-0.458984375,0.302734375t-0.5859375,0.13671875t-0.537109375,0.0390625q-0.83984375,0-1.259765625-0.29296875t-0.60546875-0.80078125t-0.224609375-1.142578125t-0.15625-1.279296875q-0.234375,0.76171875-0.615234375,1.484375t-0.8984375,1.298828125t-1.220703125,0.91796875t-1.58203125,0.341796875q-1.2890625,0-2.16796875-0.7421875t-1.416015625-1.826171875t-0.78125-2.314453125t-0.244140625-2.28515625z M89.5771484375,112.44140625q0,0.72265625,0.09765625,1.5234375t0.322265625,1.58203125t0.576171875,1.474609375t0.87890625,1.220703125q0.95703125-1.03515625,1.416015625-2.51953125t0.8203125-2.861328125t0.8203125-2.36328125t1.416015625-0.986328125q0.60546875,0,1.015625,0.21484375q-0.1953125-0.48828125-0.64453125-0.947265625t-1.005859375-0.83984375t-1.15234375-0.625t-1.123046875-0.244140625q-0.15625,0-0.361328125,0.048828125t-0.322265625,0.009765625q-0.80078125,0.234375-1.318359375,0.810546875t-0.83984375,1.357421875t-0.458984375,1.6015625t-0.13671875,1.54296875z M111.2634765625,96.513671875q-0.0390625-0.517578125,0.087890625-0.9765625t0.478515625-0.76171875t1.19140625-0.302734375q0.1953125,0,0.478515625,0.0390625t0.56640625,0.126953125t0.458984375,0.244140625t0.17578125,0.4296875q0,0.72265625,0.048828125,1.904296875t0.126953125,2.4609375t0.146484375,2.5t0.126953125,1.982421875q1.5234375-0.078125,3.06640625-0.078125t3.046875-0.078125l2.6953125-0.078125l0-1.93359375q0-3.2421875-0.126953125-6.494140625t-0.439453125-6.494140625q0-0.234375,0.1953125-0.380859375t0.458984375-0.224609375t0.546875-0.09765625t0.439453125-0.01953125q0.44921875,0,0.966796875,0.13671875t0.595703125,0.5859375l0.1171875,0.83984375q0.48828125,3.515625,0.6640625,6.953125t0.25390625,6.875q0.234375,0.0390625,0.498046875,0.126953125t0.537109375,0.166015625q0.1953125,0.078125,0.556640625,0.234375t0.361328125,0.48828125q0,0.3125-0.2734375,0.48828125t-0.615234375,0.263671875t-0.6640625,0.107421875t-0.400390625,0.01953125q0.0390625,1.4453125,0.0390625,2.880859375l0,2.880859375l0,6.30859375l0,3.515625q0,0.234375-0.224609375,0.419921875t-0.537109375,0.302734375t-0.654296875,0.15625t-0.615234375,0.0390625t-0.64453125-0.0390625t-0.6640625-0.15625t-0.517578125-0.29296875t-0.224609375-0.4296875l0-0.83984375q0.078125-3.7109375,0.17578125-7.353515625t0.1953125-7.314453125q-2.12890625,0.078125-4.326171875,0.09765625t-4.365234375,0.09765625q0.234375,2.75390625,0.537109375,5.498046875t0.634765625,5.498046875q0,0.234375-0.224609375,0.419921875t-0.52734375,0.302734375t-0.64453125,0.15625t-0.615234375,0.0390625q-0.56640625,0-1.240234375-0.1953125t-0.751953125-0.72265625q-0.234375-2.0703125-0.439453125-4.5703125t-0.361328125-5.107421875t-0.244140625-5.107421875t-0.087890625-4.53125q0-0.48828125-0.0390625-1.005859375z M133.58125,113.515625q0-1.3671875,0.302734375-3.22265625t1.025390625-3.515625t1.904296875-2.822265625t2.978515625-1.162109375q1.6796875,0,2.51953125,0.966796875t0.83984375,2.607421875q0,1.07421875-0.400390625,2.353515625t-1.142578125,2.421875t-1.7578125,1.904296875t-2.265625,0.76171875l-0.5078125-0.0390625q0,0.52734375,0.15625,1.416015625t0.458984375,1.767578125t0.78125,1.54296875t1.162109375,0.6640625q0.99609375,0,1.9140625-0.80078125t1.73828125-1.77734375t1.5234375-1.77734375t1.2890625-0.80078125q0.3125,0,0.64453125,0.09765625t0.37109375,0.546875q0,0.2734375-0.146484375,0.44921875t-0.263671875,0.390625q-0.60546875,1.03515625-1.318359375,1.97265625t-1.611328125,1.69921875t-1.962890625,1.201171875t-2.353515625,0.439453125q-1.6796875,0-2.79296875-0.595703125t-1.796875-1.6015625t-0.986328125-2.32421875t-0.302734375-2.763671875z M137.07734375,112.03125l0.546875,0.48828125q0.390625,0.3515625,0.78125,0.15625t0.703125-0.712890625t0.576171875-1.279296875t0.46875-1.5625t0.302734375-1.5625t0.09765625-1.26953125l0-0.6640625t-0.05859375-0.703125t-0.205078125-0.556640625t-0.458984375-0.283203125q-0.09765625-0.01953125-0.17578125-0.01953125q-0.6640625,0-1.1328125,0.83984375q-0.5078125,0.9375-0.8203125,2.275390625t-0.44921875,2.744140625t-0.17578125,2.109375z M149.9029296875,107.24609375q0-0.80078125,0.283203125-1.34765625t1.201171875-0.546875q0.3515625,0,0.87890625,0.107421875t0.60546875,0.537109375q0.1953125,1.15234375,0.21484375,2.5t0.13671875,2.5390625q0.44921875-0.87890625,1.15234375-1.89453125t1.6015625-1.875t1.953125-1.42578125t2.1484375-0.56640625q0.078125,0,0.29296875,0.05859375t0.400390625,0.166015625t0.224609375,0.244140625t-0.21484375,0.25390625q-0.078125,0.234375-0.33203125,0.283203125t-0.44921875,0.048828125q-0.1171875,0-0.37109375-0.09765625q-1.4453125,0.76171875-2.4609375,2.0703125t-1.66015625,2.900390625t-0.9375,3.359375t-0.29296875,3.447265625q0,0.83984375-0.380859375,1.015625t-1.220703125,0.17578125q-0.44921875,0-0.947265625-0.09765625t-0.693359375-0.625q-0.3515625-1.11328125-0.576171875-2.55859375t-0.341796875-2.978515625t-0.166015625-3.017578125t-0.048828125-2.67578125z M163.783203125,112.24609375q0-1.796875,0.419921875-3.525390625t0.712890625-3.447265625q0.078125-0.44921875,0.615234375-0.556640625t0.908203125-0.107421875q0.64453125,0,1.03515625,0.1953125q0.15625,0.078125,0.29296875,0.17578125t0.13671875,0.25390625q0,1.6796875-0.400390625,3.28125t-0.400390625,3.3984375q0,0.60546875,0.087890625,1.142578125t0.166015625,1.064453125l0.1171875,0.56640625q0,0.15625,0.01953125,0.2734375t0.05859375,0.2734375q0,0.3515625-0.498046875,0.478515625t-0.869140625,0.126953125q-0.56640625,0-1.044921875-0.224609375t-0.751953125-0.771484375l-0.2734375-0.56640625q-0.234375-0.44921875-0.234375-1.005859375t-0.09765625-1.025390625z M165.033203125,100.48828125l0-0.37109375q0-0.91796875,0.458984375-1.640625t1.376953125-0.72265625q0.1171875,0,0.224609375,0.01953125t0.224609375,0.01953125q0.234375,0.0390625,0.615234375,0.185546875t0.380859375,0.458984375l0,0.0390625q-0.078125,0.15625-0.09765625,0.322265625t-0.09765625,0.283203125l0.0390625-0.0390625q-0.234375,0.60546875-0.380859375,0.9765625t-0.322265625,0.595703125t-0.439453125,0.322265625t-0.751953125,0.09765625q-0.078125,0-0.2734375-0.01953125t-0.419921875-0.078125t-0.380859375-0.15625t-0.15625-0.29296875z M171.5111328125,100.3125q0-0.2734375,0.5859375-0.46875t1.328125-0.322265625t1.435546875-0.185546875t0.947265625-0.09765625q0-0.52734375,0.0390625-1.064453125t0.21484375-0.95703125t0.556640625-0.673828125t1.064453125-0.25390625q0.56640625,0,0.859375,0.13671875t0.625,0.56640625q0.078125,0.234375,0.078125,0.44921875l0,0.654296875t-0.0390625,0.673828125q0.72265625-0.078125,1.435546875-0.185546875t1.435546875-0.107421875q0.52734375,0,0.72265625,0.01953125t0.390625,0.46875q0.15625,0.44921875-0.380859375,0.68359375t-1.2890625,0.3515625t-1.494140625,0.17578125t-0.8984375,0.05859375q-0.234375,3.359375-0.478515625,6.66015625t-0.244140625,6.69921875q0,1.5234375,0.09765625,3.14453125t0.546875,3.06640625q0.1171875,0.44921875,0.390625,0.83984375t0.2734375,0.83984375q0,0.2734375-0.21484375,0.4296875t-0.517578125,0.263671875t-0.60546875,0.126953125t-0.498046875,0.01953125q-1.23046875,0-1.875-0.91796875t-0.927734375-2.197265625t-0.302734375-2.626953125t-0.01953125-2.1875q0-1.71875,0.068359375-3.515625t0.166015625-3.5546875t0.2734375-3.4375t0.41015625-3.125q-0.68359375,0.078125-1.337890625,0.17578125t-1.337890625,0.09765625q-0.15625,0-0.419921875-0.01953125t-0.498046875-0.09765625t-0.400390625-0.21484375t-0.166015625-0.390625z M186.44609375,112.71484375q0-1.328125,0.361328125-2.55859375t1.083984375-2.197265625t1.806640625-1.54296875t2.509765625-0.576171875q0.87890625,0,1.943359375,0.263671875t2.001953125,0.78125t1.5625,1.318359375t0.625,1.8359375q0,0.48828125-0.166015625,0.7421875t-0.673828125,0.25390625l-0.21484375-0.0390625q0.56640625,1.5234375,0.9765625,3.125t0.80078125,3.203125q0.15625,0.3125,0.234375,0.556640625t0.078125,0.478515625q0,0.3125-0.17578125,0.517578125t-0.458984375,0.302734375t-0.5859375,0.13671875t-0.537109375,0.0390625q-0.83984375,0-1.259765625-0.29296875t-0.60546875-0.80078125t-0.224609375-1.142578125t-0.15625-1.279296875q-0.234375,0.76171875-0.615234375,1.484375t-0.8984375,1.298828125t-1.220703125,0.91796875t-1.58203125,0.341796875q-1.2890625,0-2.16796875-0.7421875t-1.416015625-1.826171875t-0.78125-2.314453125t-0.244140625-2.28515625z M189.21953125,112.44140625q0,0.72265625,0.09765625,1.5234375t0.322265625,1.58203125t0.576171875,1.474609375t0.87890625,1.220703125q0.95703125-1.03515625,1.416015625-2.51953125t0.8203125-2.861328125t0.8203125-2.36328125t1.416015625-0.986328125q0.60546875,0,1.015625,0.21484375q-0.1953125-0.48828125-0.64453125-0.947265625t-1.005859375-0.83984375t-1.15234375-0.625t-1.123046875-0.244140625q-0.15625,0-0.361328125,0.048828125t-0.322265625,0.009765625q-0.80078125,0.234375-1.318359375,0.810546875t-0.83984375,1.357421875t-0.458984375,1.6015625t-0.13671875,1.54296875z M203.3732421875,112.03125q0-1.07421875,0.205078125-2.294921875t0.703125-2.236328125t1.376953125-1.6796875t2.24609375-0.6640625q0.91796875,0,1.77734375,0.302734375t1.62109375,0.830078125q0.234375-0.390625,0.7421875-0.478515625t0.8984375-0.087890625q0.15625,0,0.439453125,0.01953125t0.556640625,0.1171875t0.478515625,0.234375t0.244140625,0.390625q0.15625,1.3671875,0.21484375,2.724609375t0.17578125,2.705078125q0.1953125,2.51953125,0.60546875,4.98046875t0.41015625,4.98046875q0,1.19140625-0.107421875,2.578125t-0.56640625,2.568359375t-1.337890625,1.962890625t-2.44140625,0.78125q-1.40625,0-2.158203125-0.498046875t-1.357421875-1.669921875q0.0390625-0.390625,0.498046875-0.517578125t0.791015625-0.126953125q0.3125,0,0.634765625,0.05859375t0.517578125,0.1953125l0.48828125,0.3125q0.72265625-1.484375,0.87890625-3.2421875t0.15625-3.3984375q0-1.3671875-0.13671875-2.705078125t-0.2734375-2.685546875q-1.3671875,2.48046875-4.16015625,2.48046875q-1.2890625,0-2.099609375-0.546875t-1.25-1.38671875t-0.60546875-1.89453125t-0.166015625-2.109375z M205.7755859375,112.20703125q0,0.48828125,0.0390625,1.259765625t0.205078125,1.513671875t0.478515625,1.279296875t0.87890625,0.537109375q1.07421875,0,1.69921875-0.83984375t0.986328125-2.001953125t0.576171875-2.40234375t0.546875-2.041015625q-0.0390625-0.2734375-0.0390625-0.537109375l0-0.537109375q-0.44921875-0.83984375-1.30859375-1.455078125t-1.77734375-0.830078125q-0.1171875-0.01953125-0.21484375-0.01953125q-0.546875,0-0.8984375,0.64453125q-0.44921875,0.78125-0.703125,1.865234375t-0.361328125,2.138671875t-0.107421875,1.42578125z M220.066015625,113.515625q0-1.3671875,0.302734375-3.22265625t1.025390625-3.515625t1.904296875-2.822265625t2.978515625-1.162109375q1.6796875,0,2.51953125,0.966796875t0.83984375,2.607421875q0,1.07421875-0.400390625,2.353515625t-1.142578125,2.421875t-1.7578125,1.904296875t-2.265625,0.76171875l-0.5078125-0.0390625q0,0.52734375,0.15625,1.416015625t0.458984375,1.767578125t0.78125,1.54296875t1.162109375,0.6640625q0.99609375,0,1.9140625-0.80078125t1.73828125-1.77734375t1.5234375-1.77734375t1.2890625-0.80078125q0.3125,0,0.64453125,0.09765625t0.37109375,0.546875q0,0.2734375-0.146484375,0.44921875t-0.263671875,0.390625q-0.60546875,1.03515625-1.318359375,1.97265625t-1.611328125,1.69921875t-1.962890625,1.201171875t-2.353515625,0.439453125q-1.6796875,0-2.79296875-0.595703125t-1.796875-1.6015625t-0.986328125-2.32421875t-0.302734375-2.763671875z M223.562109375,112.03125l0.546875,0.48828125q0.390625,0.3515625,0.78125,0.15625t0.703125-0.712890625t0.576171875-1.279296875t0.46875-1.5625t0.302734375-1.5625t0.09765625-1.26953125l0-0.6640625t-0.05859375-0.703125t-0.205078125-0.556640625t-0.458984375-0.283203125q-0.09765625-0.01953125-0.17578125-0.01953125q-0.6640625,0-1.1328125,0.83984375q-0.5078125,0.9375-0.8203125,2.275390625t-0.44921875,2.744140625t-0.17578125,2.109375z"/><path fill="#" d=""/></svg>
