<svg width="385.2968017578125px" height="121.39999999999999px" xmlns="http://www.w3.org/2000/svg" viewBox="57.351599121093756 14.300000000000004 385.2968017578125 121.39999999999999" style="background: rgba(0, 0, 0, 0);" preserveAspectRatio="xMidYMid"><defs><filter id="editing-extrusion" x="-100%" y="-100%" width="300%" height="300%"><feFlood result="color1" flood-color="#444444"></feFlood><feConvolveMatrix order="8,8" divisor="1" kernelMatrix="1 0 0 0 0 0 0 0 0 1 0 0 0 0 0 0 0 0 1 0 0 0 0 0 0 0 0 1 0 0 0 0 0 0 0 0 1 0 0 0 0 0 0 0 0 1 0 0 0 0 0 0 0 0 1 0 0 0 0 0 0 0 0 1" in="SourceAlpha" result="extrude"></feConvolveMatrix><feComposite in="color1" in2="extrude" result="comp-extrude" operator="in"></feComposite><feOffset dx="4" dy="4" in="comp-extrude" result="offset-extrude"></feOffset><feMerge><feMergeNode in="offset-extrude"></feMergeNode><feMergeNode in="SourceGraphic"></feMergeNode></feMerge></filter></defs><g filter="url(#editing-extrusion)"><g transform="translate(116.0499926507473, 104.76000022888184)"><path d="M24.96-4.80L24.96-4.80L24.96-4.80Q24.96-9.28 26.75-18.24L26.75-18.24L17.28-18.24L13.76 0L0.38 0L8.51-42.24L22.02-42.24L18.30-23.36L27.78-23.36L31.30-42.24L44.80-42.24L44.80-42.24Q43.90-37.50 42.75-32.19L42.75-32.19L40.58-21.76L40.58-21.76Q38.14-9.60 38.14-4.29L38.14-4.29L38.14-4.29Q38.14-2.11 38.85-0.90L38.85-0.90L38.85-0.90Q35.65 1.28 31.90 1.28L31.90 1.28L31.90 1.28Q28.16 1.28 26.56-0.51L26.56-0.51L26.56-0.51Q24.96-2.30 24.96-4.80ZM72.26-10.82L72.26-10.82L72.26-10.82Q73.86-9.73 73.86-7.33L73.86-7.33L73.86-7.33Q73.86-4.93 72.64-3.39L72.64-3.39L72.64-3.39Q71.42-1.86 69.44-0.83L69.44-0.83L69.44-0.83Q65.34 1.28 60.93 1.28L60.93 1.28L60.93 1.28Q56.51 1.28 53.92 0.32L53.92 0.32L53.92 0.32Q51.33-0.64 49.60-2.43L49.60-2.43L49.60-2.43Q46.21-5.82 46.21-12.03L46.21-12.03L46.21-12.03Q46.21-21.70 51.46-27.58L51.46-27.58L51.46-27.58Q57.09-33.92 66.88-33.92L66.88-33.92L66.88-33.92Q72.96-33.92 75.97-31.36L75.97-31.36L75.97-31.36Q78.21-29.44 78.21-26.30L78.21-26.30L78.21-26.30Q78.21-15.04 58.75-15.04L58.75-15.04L58.75-15.04Q58.50-13.38 58.50-11.97L58.50-11.97L58.50-11.97Q58.50-9.02 59.81-7.90L59.81-7.90L59.81-7.90Q61.12-6.78 63.55-6.78L63.55-6.78L63.55-6.78Q65.98-6.78 68.58-7.90L68.58-7.90L68.58-7.90Q71.17-9.02 72.26-10.82ZM59.20-17.79L59.20-17.79L59.20-17.79Q63.74-17.79 66.37-20.61L66.37-20.61L66.37-20.61Q68.99-23.30 68.99-27.58L68.99-27.58L68.99-27.58Q68.99-29.06 68.45-29.86L68.45-29.86L68.45-29.86Q67.90-30.66 66.82-30.66L66.82-30.66L66.82-30.66Q65.73-30.66 64.80-30.24L64.80-30.24L64.80-30.24Q63.87-29.82 62.91-28.42L62.91-28.42L62.91-28.42Q60.54-25.22 59.20-17.79ZM100.42-17.98L100.42-17.98L100.42-17.98Q102.72-22.08 102.72-26.24L102.72-26.24L102.72-26.24Q102.72-28.99 100.74-28.99L100.74-28.99L100.74-28.99Q99.20-28.99 97.60-26.37L97.60-26.37L97.60-26.37Q95.94-23.74 95.42-20.35L95.42-20.35L92.10 0L78.85 1.28L85.38-32.64L95.94-33.92L94.78-27.46L94.78-27.46Q97.92-33.92 104.96-33.92L104.96-33.92L104.96-33.92Q108.67-33.92 110.69-32L110.69-32L110.69-32Q112.70-30.08 112.70-26.14L112.70-26.14L112.70-26.14Q112.70-22.21 110.11-19.71L110.11-19.71L110.11-19.71Q107.52-17.22 103.10-17.22L103.10-17.22L103.10-17.22Q101.18-17.22 100.42-17.98ZM129.09-3.52L129.09-3.52L129.09-3.52Q127.10 1.28 120.77 1.28L120.77 1.28L120.77 1.28Q117.50 1.28 115.46-0.96L115.46-0.96L115.46-0.96Q113.73-2.94 113.73-4.93L113.73-4.93L113.73-4.93Q113.73-10.11 116.10-20.22L116.10-20.22L118.46-32.64L131.46-33.92L127.55-13.70L127.55-13.70Q126.46-8.96 126.46-7.30L126.46-7.30L126.46-7.30Q126.46-3.65 129.09-3.52ZM119.62-41.54L119.62-41.54L119.62-41.54Q119.62-44.03 121.70-45.38L121.70-45.38L121.70-45.38Q123.78-46.72 126.78-46.72L126.78-46.72L126.78-46.72Q129.79-46.72 131.62-45.38L131.62-45.38L131.62-45.38Q133.44-44.03 133.44-41.54L133.44-41.54L133.44-41.54Q133.44-39.04 131.42-37.76L131.42-37.76L131.42-37.76Q129.41-36.48 126.40-36.48L126.40-36.48L126.40-36.48Q123.39-36.48 121.50-37.76L121.50-37.76L121.50-37.76Q119.62-39.04 119.62-41.54ZM135.55-6.40L135.55-6.40L135.55-6.40Q135.55-8.13 136.45-12.48L136.45-12.48L139.84-29.76L136.06-29.76L136.32-31.68L136.32-31.68Q144-33.98 151.42-39.62L151.42-39.62L154.50-39.62L152.96-32.64L157.95-32.64L157.38-29.76L152.45-29.76L149.18-12.48L149.18-12.48Q148.35-8.51 148.35-7.17L148.35-7.17L148.35-7.17Q148.35-4.10 151.04-3.46L151.04-3.46L151.04-3.46Q150.40-1.28 148.10 0L148.10 0L148.10 0Q145.79 1.28 142.53 1.28L142.53 1.28L142.53 1.28Q139.26 1.28 137.41-0.77L137.41-0.77L137.41-0.77Q135.55-2.82 135.55-6.40ZM160.16-1.92L160.16-1.92L160.16-1.92Q158.66-3.58 157.98-6.21L157.98-6.21L157.98-6.21Q157.31-8.83 157.31-13.12L157.31-13.12L157.31-13.12Q157.31-17.41 158.78-21.31L158.78-21.31L158.78-21.31Q160.26-25.22 162.94-28.03L162.94-28.03L162.94-28.03Q168.45-33.92 177.54-33.92L177.54-33.92L177.54-33.92Q180.80-33.92 183.17-32.83L183.17-32.83L194.11-33.92L189.38-8.96L189.38-8.96Q189.18-8.19 189.18-6.78L189.18-6.78L189.18-6.78Q189.18-5.38 190.05-4.48L190.05-4.48L190.05-4.48Q190.91-3.58 192.19-3.46L192.19-3.46L192.19-3.46Q191.55-1.28 189.22 0L189.22 0L189.22 0Q186.88 1.28 184.26 1.28L184.26 1.28L184.26 1.28Q181.63 1.28 179.87 0.29L179.87 0.29L179.87 0.29Q178.11-0.70 177.60-2.37L177.60-2.37L177.60-2.37Q176.58-0.77 174.40 0.26L174.40 0.26L174.40 0.26Q172.22 1.28 169.31 1.28L169.31 1.28L169.31 1.28Q166.40 1.28 164.03 0.51L164.03 0.51L164.03 0.51Q161.66-0.26 160.16-1.92ZM173.66-27.90L173.66-27.90L173.66-27.90Q172.93-26.75 172.29-24.80L172.29-24.80L172.29-24.80Q171.65-22.85 170.59-17.63L170.59-17.63L170.59-17.63Q169.54-12.42 169.54-8.70L169.54-8.70L169.54-8.70Q169.54-4.99 170.11-3.90L170.11-3.90L170.11-3.90Q170.69-2.82 171.71-2.82L171.71-2.82L171.71-2.82Q173.76-2.82 175.26-4.77L175.26-4.77L175.26-4.77Q176.77-6.72 177.34-10.18L177.34-10.18L180.74-28.93L180.74-28.93Q179.39-30.08 177.82-30.08L177.82-30.08L177.82-30.08Q176.26-30.08 175.33-29.57L175.33-29.57L175.33-29.57Q174.40-29.06 173.66-27.90ZM201.86-26.75L201.86-26.75L201.86-26.75Q204.03-29.82 207.33-31.87L207.33-31.87L207.33-31.87Q210.62-33.92 214.66-33.92L214.66-33.92L214.66-33.92Q218.69-33.92 220.61-32.64L220.61-32.64L233.15-33.92L228.80-9.34L228.80-9.34Q226.56 3.20 221.82 8.13L221.82 8.13L221.82 8.13Q217.28 12.80 208.45 12.80L208.45 12.80L208.45 12.80Q201.73 12.80 197.89 10.69L197.89 10.69L197.89 10.69Q194.05 8.58 194.05 5.06L194.05 5.06L194.05 5.06Q194.05 2.43 196.03 0.93L196.03 0.93L196.03 0.93Q198.02-0.58 201.09-0.58L201.09-0.58L201.09-0.58Q203.78-0.58 205.82 0.64L205.82 0.64L205.82 0.64Q207.04 1.28 207.62 2.18L207.62 2.18L207.62 2.18Q206.14 3.46 206.14 5.57L206.14 5.57L206.14 5.57Q206.14 8.32 208.70 8.32L208.70 8.32L208.70 8.32Q212.99 8.32 215.42-1.79L215.42-1.79L215.42-1.79Q216.13-4.54 216.70-7.30L216.70-7.30L216.70-7.30Q213.82-3.78 207.30-3.78L207.30-3.78L207.30-3.78Q202.75-3.78 200.13-5.95L200.13-5.95L200.13-5.95Q197.50-8.13 197.50-13.25L197.50-13.25L197.50-13.25Q197.50-16.45 198.59-20.06L198.59-20.06L198.59-20.06Q199.68-23.68 201.86-26.75ZM210.18-13.06L210.18-13.06L210.18-13.06Q210.18-8.70 212.42-8.70L212.42-8.70L212.42-8.70Q213.95-8.70 215.42-10.37L215.42-10.37L215.42-10.37Q216.58-11.71 217.02-13.70L217.02-13.70L220.29-30.14L220.29-30.14Q219.97-30.21 219.65-30.34L219.65-30.34L219.65-30.34Q219.01-30.59 218.18-30.59L218.18-30.59L218.18-30.59Q214.27-30.59 211.97-24.19L211.97-24.19L211.97-24.19Q210.18-19.20 210.18-13.06ZM261.57-10.82L261.57-10.82L261.57-10.82Q263.17-9.73 263.17-7.33L263.17-7.33L263.17-7.33Q263.17-4.93 261.95-3.39L261.95-3.39L261.95-3.39Q260.74-1.86 258.75-0.83L258.75-0.83L258.75-0.83Q254.66 1.28 250.24 1.28L250.24 1.28L250.24 1.28Q245.82 1.28 243.23 0.32L243.23 0.32L243.23 0.32Q240.64-0.64 238.91-2.43L238.91-2.43L238.91-2.43Q235.52-5.82 235.52-12.03L235.52-12.03L235.52-12.03Q235.52-21.70 240.77-27.58L240.77-27.58L240.77-27.58Q246.40-33.92 256.19-33.92L256.19-33.92L256.19-33.92Q262.27-33.92 265.28-31.36L265.28-31.36L265.28-31.36Q267.52-29.44 267.52-26.30L267.52-26.30L267.52-26.30Q267.52-15.04 248.06-15.04L248.06-15.04L248.06-15.04Q247.81-13.38 247.81-11.97L247.81-11.97L247.81-11.97Q247.81-9.02 249.12-7.90L249.12-7.90L249.12-7.90Q250.43-6.78 252.86-6.78L252.86-6.78L252.86-6.78Q255.30-6.78 257.89-7.90L257.89-7.90L257.89-7.90Q260.48-9.02 261.57-10.82ZM248.51-17.79L248.51-17.79L248.51-17.79Q253.06-17.79 255.68-20.61L255.68-20.61L255.68-20.61Q258.30-23.30 258.30-27.58L258.30-27.58L258.30-27.58Q258.30-29.06 257.76-29.86L257.76-29.86L257.76-29.86Q257.22-30.66 256.13-30.66L256.13-30.66L256.13-30.66Q255.04-30.66 254.11-30.24L254.11-30.24L254.11-30.24Q253.18-29.82 252.22-28.42L252.22-28.42L252.22-28.42Q249.86-25.22 248.51-17.79Z" fill="#ccc"></path></g></g><style>text {
  font-size: 64px;
  font-family: Arial Black;
  dominant-baseline: central;
  text-anchor: middle;
}</style></svg>